<?xml version="1.0" encoding="UTF-8"?><svg id="a" xmlns="http://www.w3.org/2000/svg" width="1063.45" height="219" viewBox="0 0 1063.45 219"><path d="M0,214.5L87,5.4h34.5l86.7,209.1h-51.3l-52.5-138.9-53.1,138.9H0ZM62.4,179.1l14.7-42h54.3l15.3,42H62.4Z" fill="#4a6cf7"/><path d="M257.79,217.8c-12.8,0-23.7-3.35-32.7-10.05-9-6.7-15.85-15.9-20.55-27.6-4.7-11.7-7.05-24.95-7.05-39.75,0-16.6,2.7-30.6,8.1-42s12.7-20.1,21.9-26.1c9.2-6,19.3-9,30.3-9,7,0,13.8,1.5,20.4,4.5s12.3,7.9,17.1,14.7c4.8,6.8,8,16.1,9.6,27.9l-8.1-6.6V5.4h45v209.1h-45v-36.6l9.3-9c-2.4,13.8-6.3,24.2-11.7,31.2-5.4,7-11.35,11.7-17.85,14.1-6.5,2.4-12.75,3.6-18.75,3.6ZM271.89,176.4c6.2,0,11.45-1.45,15.75-4.35,4.3-2.9,7.6-7.05,9.9-12.45,2.3-5.4,3.45-11.8,3.45-19.2s-1.15-13.75-3.45-19.05c-2.3-5.3-5.6-9.4-9.9-12.3-4.3-2.9-9.55-4.35-15.75-4.35s-11.2,1.4-15.6,4.2c-4.4,2.8-7.75,6.85-10.05,12.15-2.3,5.3-3.45,11.75-3.45,19.35s1.15,14.1,3.45,19.5c2.3,5.4,5.65,9.5,10.05,12.3,4.4,2.8,9.6,4.2,15.6,4.2Z" fill="#4a6cf7"/><path d="M431.7,219c-23.2,0-42.2-6-57-18-14.8-12-23.8-28-27-48l45.9-11.4c2.2,12,6.75,20.95,13.65,26.85,6.9,5.9,15.55,8.85,25.95,8.85,5.2,0,9.85-.8,13.95-2.4,4.1-1.6,7.35-4,9.75-7.2,2.4-3.2,3.6-7,3.6-11.4,0-4-1.2-7.55-3.6-10.65-2.4-3.1-6.3-6.1-11.7-9-5.4-2.9-12.6-6.05-21.6-9.45-14.2-5.6-25.8-11.55-34.8-17.85-9-6.3-15.6-13.55-19.8-21.75-4.2-8.2-6.3-17.6-6.3-28.2,0-11.6,2.85-21.85,8.55-30.75,5.7-8.9,13.7-15.9,24-21,10.3-5.1,22.25-7.65,35.85-7.65,14.6,0,27.55,3.35,38.85,10.05,11.3,6.7,20.35,16.85,27.15,30.45l-37.5,22.8c-3.8-7-8.25-12.35-13.35-16.05-5.1-3.7-10.65-5.55-16.65-5.55-3.6,0-6.9.7-9.9,2.1-3,1.4-5.4,3.35-7.2,5.85-1.8,2.5-2.7,5.45-2.7,8.85s1.05,6.6,3.15,9.6c2.1,3,5.95,6.05,11.55,9.15,5.6,3.1,13.4,6.55,23.4,10.35,13.4,5,24.45,10.5,33.15,16.5,8.7,6,15.25,12.95,19.65,20.85,4.4,7.9,6.6,17.35,6.6,28.35,0,12.8-3.15,24.15-9.45,34.05-6.3,9.9-15.1,17.65-26.4,23.25-11.3,5.6-24.55,8.4-39.75,8.4Z" fill="#4a6cf7"/><path d="M584.42,217.8c-13.6,0-25.2-2.15-34.8-6.45-9.6-4.3-17.4-10.1-23.4-17.4-6-7.3-10.35-15.5-13.05-24.6-2.7-9.1-4.05-18.45-4.05-28.05s1.35-18.4,4.05-27.6c2.7-9.2,6.9-17.6,12.6-25.2,5.7-7.6,13.2-13.7,22.5-18.3,9.3-4.6,20.55-6.9,33.75-6.9,11.6,0,21.8,1.95,30.6,5.85,8.8,3.9,16.15,9.35,22.05,16.35,5.9,7,10.35,15.3,13.35,24.9s4.5,20.1,4.5,31.5c0,2-.05,4.1-.15,6.3-.1,2.2-.35,4.9-.75,8.1h-97.2c1.2,8,4.95,13.8,11.25,17.4,6.3,3.6,13.55,5.4,21.75,5.4,7.2,0,14.6-1.25,22.2-3.75,7.6-2.5,14.2-5.95,19.8-10.35l19.2,31.8c-7.8,5.2-14.9,9.35-21.3,12.45-6.4,3.1-12.95,5.3-19.65,6.6-6.7,1.3-14.45,1.95-23.25,1.95ZM608.12,133.8c.4-1.6.75-3.2,1.05-4.8.3-1.6.45-3.1.45-4.5,0-3.8-.7-7.15-2.1-10.05-1.4-2.9-3.35-5.35-5.85-7.35-2.5-2-5.35-3.55-8.55-4.65-3.2-1.1-6.6-1.65-10.2-1.65-6.6,0-11.95,1.2-16.05,3.6-4.1,2.4-7.15,5.3-9.15,8.7-2,3.4-3.3,6.7-3.9,9.9h69.3l-15,10.8Z" fill="#4a6cf7"/><path d="M700.49,217.8c-10.8,0-19.9-3.25-27.3-9.75-7.4-6.5-11.1-16.85-11.1-31.05V5.4h45v162.6c0,3,.85,5.1,2.55,6.3,1.7,1.2,3.85,1.8,6.45,1.8,1.6,0,3.15-.15,4.65-.45,1.5-.3,3.05-.65,4.65-1.05v38.4c-4.6,1.8-9.05,3.05-13.35,3.75-4.3.7-8.15,1.05-11.55,1.05Z" fill="#4a6cf7"/><path d="M770.06,217.8c-10.8,0-19.9-3.25-27.3-9.75-7.4-6.5-11.1-16.85-11.1-31.05V5.4h45v162.6c0,3,.85,5.1,2.55,6.3,1.7,1.2,3.85,1.8,6.45,1.8,1.6,0,3.15-.15,4.65-.45,1.5-.3,3.05-.65,4.65-1.05v38.4c-4.6,1.8-9.05,3.05-13.35,3.75-4.3.7-8.15,1.05-11.55,1.05Z" fill="#4a6cf7"/><path d="M806.12,214.5v-42.6h46.2v42.6h-46.2Z" fill="#4a6cf7"/><path d="M919.34,217.8c-10.6,0-20.25-2.05-28.95-6.15-8.7-4.1-15.6-9.95-20.7-17.55-5.1-7.6-7.65-16.4-7.65-26.4,0-8.6,1.85-16.1,5.55-22.5,3.7-6.4,8.65-11.3,14.85-14.7,4.6-2.6,9.8-4.5,15.6-5.7,5.8-1.2,12-1.8,18.6-1.8h44.4v33.3h-37.8c-2.4,0-4.55.2-6.45.6-1.9.4-3.55,1.1-4.95,2.1-1.4,1-2.5,2.25-3.3,3.75-.8,1.5-1.2,3.15-1.2,4.95,0,4.2,1.75,7.55,5.25,10.05,3.5,2.5,8.15,3.75,13.95,3.75s10.75-1.15,15.45-3.45c4.7-2.3,8.45-5.45,11.25-9.45,2.8-4,4.2-8.6,4.2-13.8l9.6,25.5c-3.8,10.2-8.35,18-13.65,23.4-5.3,5.4-10.9,9.1-16.8,11.1-5.9,2-11.65,3-17.25,3ZM961.04,214.5l-3.6-17.4v-76.5c0-7-2.5-12-7.5-15-5-3-11.2-4.5-18.6-4.5-7.8,0-16.1,1.45-24.9,4.35-8.8,2.9-16.2,6.45-22.2,10.65l-19.2-31.8c11.8-7.8,23.25-13.25,34.35-16.35,11.1-3.1,23.05-4.65,35.85-4.65,21,0,37.45,5.15,49.35,15.45,11.9,10.3,17.85,24.25,17.85,41.85v93.9h-41.4Z" fill="#4a6cf7"/><path d="M1017.25,46.2V5.4h46.2v40.8h-46.2ZM1017.55,214.5V66.6h45.3v147.9h-45.3Z" fill="#4a6cf7"/></svg>